<?xml version="1.0" encoding="UTF-8"?>
<svg id="Ebene_1" data-name="Ebene 1" xmlns="http://www.w3.org/2000/svg" viewBox="0 0 397.27 90.2">
  <defs>
    <style>
      .cls-1, .cls-2 {
        stroke-width: 0px;
      }

      .cls-3 {
        fill: none;
        stroke: #f7a81c;
        stroke-miterlimit: 10;
        stroke-width: 5px;
      }

      .cls-2 {
        fill: #d1d1cd;
      }
    </style>
  </defs>
  <circle class="cls-3" cx="358.84" cy="51.77" r="35.93"/>
  <g>
    <path class="cls-2" d="m45.17,51.41c-12.05,13-28.56,26.76-39.36,16.62C-7.09,53.37,15.65,17.77,34.83,5.73c7.68-4.82,14.61-2.66,11.4,7.48-2.46,7.78-6.88,15.06-9.19,17.12-2.21,2.21-3.82,1.61-3.41-.65.5-4.92,6.93-8.23,10.04-16.62,2.81-7.78-1.41-9.94-8.08-5.07C18.01,20.03-3.07,53.87,7.42,66.07c7.53,7.88,22.89-.75,40.11-19.43.85-11.55,12.6-32.68,17.82-37.8,1.36-1.41,3.16-2.31,4.22-1.91,5.32,2.61-15.26,33.33-19.78,39.16-.45,3.31.05,5.37,2.01,5.77,4.27-.2,14.21-10.79,18.02-15.21.85-.9,1.51-.05.9.75-4.72,5.42-14.71,16.62-20.18,16.01-1.51-.35-2.51-1.51-2.86-3.82-.05-.2-.1-.55-.1-.85-.95,1.16-1.71,1.96-2.41,2.71v-.05Zm5.12-8.03c12.1-16.82,21.19-34.84,18.62-34.69-2.96-.15-15.46,21.39-18.62,34.69Z"/>
    <path class="cls-2" d="m76.19,34.79c.4-.5,1.81-.7,2.16-.45.2.15.35.3-.05,1.1-1.71,2.86-3.11,9.99-1.1,10.94,2.56,1,8.28-7.08,10.54-9.29.85-.9,1.46-.05.85.75-2.01,1.61-8.33,11.8-12.45,9.79-2.06-1-2.31-4.82-1.66-8.18l-.25.25c-2.21,2.16-5.27,4.52-6.63,3.21-.35-.35-.35-1.51-.35-1.96.1-2.36,3.71-6.12,5.87-6.88.7-.3,1.91-.15,2.56.2.2.15.4.3.5.5Zm-1.76,1.91c-.05-.05-.2-.1-.35-.1-1.41,0-4.37,3.31-4.17,4.17.75-.25,3.06-2.61,4.52-4.07Z"/>
    <path class="cls-2" d="m90.35,35.8c-1.66,1.41-3.01,6.63-2.51,7.23,1.31-.1,4.32-5.97,5.62-8.18.95-1.61,1.76-1.05,2.11-.8.2.15.4.6,0,1.41-3.31,5.22-3.72,11.45-.05,12.15,3.66,1.15,11.9-8.28,14.16-10.49.85-.9,1.46-.05.85.75-2.01,1.61-10.24,12.9-15.81,10.94-3.01-1-3.77-4.52-3.26-8.08-.05-.05-.2.05-.4.35-1.25,1.81-2.76,3.71-3.92,3.21-.45-.2-.5-1.05-.7-1.51-.2-1.86.55-5.37,2.41-8.89.85-1.61,3.31.15,1.51,1.91Z"/>
    <path class="cls-2" d="m119.66,30.63c-.95,1.56-1.96,3.21-3.01,4.82.45.6.1,1.51-.5,1.91-.65.4-.8.05-1.36.75-1.25,1.71-2.56,3.21-3.77,4.27-1.36,1.15-2.91.95-3.31.55-.35-.35-.35-1.51-.35-1.96.1-2.36,3.71-6.12,5.87-6.88.65-.25,1.71-.15,2.36.15,2.26-3.26,4.62-7.08,6.23-9.89,2.41-6.43,5.12-12.15,7.83-15.46,1.21-1.31,2.61-1.46,2.91.3.5,2.86-3.61,6.43-5.72,10.44-6.93,11.9-12.4,37.95-9.74,37.2.9-.25.95,1.71-.75,1.56-3.16-.65-.9-14.46,3.31-27.76Zm-5.77,6.02c-1.46.35-4.07,3.31-3.87,4.12.55.1,2.06-1.66,3.87-4.12Z"/>
    <path class="cls-2" d="m127.74,35.09c.4.45.8,1.36,0,1.66-1.46.75-3.11,7.93-1.41,8.63,2.56,1,7.98-6.07,10.24-8.28.85-.9,1.46-.05.85.75-2.01,1.61-7.98,10.74-12.15,8.79-2.91-1.36-1.51-8.08.5-10.94.75-.95,1.66-.9,1.96-.6Zm.15-2.71v-.05c.75-2.66,4.27-.65,2.06.85-.4.25-.95.65-1.56.65-.45-.05-.7-1.15-.5-1.46Z"/>
    <path class="cls-2" d="m143.4,34.79c.4-.5,1.81-.7,2.16-.45.2.15.35.3-.05,1.1-1.71,2.86-3.11,9.99-1.1,10.94,2.56,1,8.28-7.08,10.54-9.29.85-.9,1.46-.05.85.75-2.01,1.61-8.33,11.8-12.45,9.79-2.06-1-2.31-4.82-1.66-8.18l-.25.25c-2.21,2.16-5.27,4.52-6.63,3.21-.35-.35-.35-1.51-.35-1.96.1-2.36,3.71-6.12,5.87-6.88.7-.3,1.91-.15,2.56.2.2.15.4.3.5.5Zm-1.76,1.91c-.05-.05-.2-.1-.35-.1-1.41,0-4.37,3.31-4.17,4.17.75-.25,3.06-2.61,4.52-4.07Z"/>
    <path class="cls-2" d="m193.1,41.62c2.86,1.91,4.67,4.37,4.22,7.88-1.15,14.51-31.23,30.22-37.75,20.43-4.22-9.24,13.96-20.68,28.77-28.11-6.68-3.06-16.11-5.27-17.02-11.75-1.25-13.15,33.03-32.88,40.06-25.2,2.46,2.71.65,7.83-2.16,11.95-2.31,3.36-3.26,3.97-4.62,4.32-2.21,1-2.91-.55-1.35-2.41,1.71-2.06,1.96-1.21,3.76-3.87,1.91-2.66,3.71-7.03,2.11-8.33-5.17-4.37-35.89,12.7-34.99,23.8.9,4.67,10.49,6.53,17.07,10.09,5.07-2.46,13.45-6.02,15.96-6.53,2.06-.45,1.91,1.36.15,1.76-2.61.6-9.74,3.46-14.21,5.97Zm-2.66,1.26c-15.41,7.68-32.08,19.53-29.17,25.7,4.07,7.18,30.27-4.17,33.28-18.07.85-3.26-1.05-5.87-4.12-7.63Z"/>
    <path class="cls-2" d="m210.17,34.29c-4.37,3.46-7.18,11.9-4.32,12.65,2.56,1,10.49-7.63,12.75-9.84.85-.9,1.46-.05.85.75-2.01,1.61-10.39,12.45-14.56,10.54-4.97-2.26.2-14.66,4.82-16.32.7-.25,2.26-.35,2.86.45.65,1.05.6,2.66.55,3.46,0,.6-.25,1.21-.65,1.41-.35.2-.95.35-1.56.1-.8-.45.45-3.36-.3-3.36-.2.1-.3,0-.45.15Z"/>
    <path class="cls-2" d="m223.07,38.41c-1.81,2.31-4.72,7.58-5.77,10.19-.5,1.25-2.96.95-2.01-1.96,3.87-14.36,15.21-36.7,20.63-40.46,3.11-2.16,4.27.45,3.26,3.21-1,3.26-2.91,6.68-4.97,9.79-2.61,3.97-7.33,10.24-10.49,14.06-1.3,1.56-2.01,1.51-3.97,6.53,1.91-2.61,4.07-4.82,5.27-4.67,3.31-.2,3.16,10.24,5.57,11.14,2.66.7,8.43-6.93,10.69-9.14.85-.9,1.46-.05.85.75-2.01,1.61-8.33,11.8-12.45,9.79-3.21-1.56-3.61-10.19-4.77-10.44-.65,0-1.05.5-1.86,1.2Zm.05-7.13c-.05.15.25.1.5-.2,2.06-2.71,7.38-9.19,9.34-12.35,2.16-3.56,4.32-7.33,4.87-9.39.35-1.41.25-2.01-.4-1.61-1.61,1-5.62,5.47-14.31,23.54Z"/>
    <path class="cls-2" d="m243.95,35.8c-1.66,1.41-3.01,6.63-2.51,7.23,1.31-.1,4.32-5.97,5.62-8.18.95-1.61,1.76-1.05,2.11-.8.2.15.4.6,0,1.41-3.31,5.22-3.71,11.45-.05,12.15,3.67,1.15,11.9-8.28,14.16-10.49.85-.9,1.46-.05.85.75-2.01,1.61-10.24,12.9-15.81,10.94-3.01-1-3.77-4.52-3.26-8.08-.05-.05-.2.05-.4.35-1.25,1.81-2.76,3.71-3.92,3.21-.45-.2-.5-1.05-.7-1.51-.2-1.86.55-5.37,2.41-8.89.85-1.61,3.31.15,1.51,1.91Zm1.71-6.43c-1.15-.2-1.56-2.26.05-2.56,1.61-.1,1.61,2.81-.05,2.56Zm3.56,0c-1.15-.2-1.56-2.26.05-2.56,1.61-.1,1.61,2.81-.05,2.56Z"/>
    <path class="cls-2" d="m277.98,8.29c2.01-2.41,5.37-2.26,4.77,1.2-.85,4.87-6.88,15.61-16.92,27.21-3.97,10.34-5.92,19.48-1.31,18.37,6.68-.7,31.08-41.62,34.79-46.39.2-.4.45-.75.7-1.1,1.91-2.96,3.01-3.36,3.97-2.66.4.3.75.85-.05,2.31-1.36,1.66-2.21,1.66-5.47,7.68-11.4,19.43-22.49,57.48-18.83,57.18,1.16-.25,1.16,1.81-.65,1.71-5.82-.3,4.17-31.88,13.66-52.36-8.89,14.36-22.79,35.94-28.92,35.49-12.2-.25,6.78-40.61,14.26-48.65Zm-10.79,24.9c11.45-14.46,15.51-24.5,13.96-24.8-1.56-.75-9.59,14.76-13.96,24.8Z"/>
    <path class="cls-2" d="m301.12,34.79c-.8,1.86-3.16,4.07-5.87,4.97-.25.1-.65.25-1.1,1.31-1.05,2.41-1,5.47.6,5.87,2.51,1,10.09-7.18,15.11-12.85-1.76.35-2.51-.05-2.66-.75-.4-2.06,4.52-7.08,6.78-6.17,1.51.6-.35,4.17-1.41,5.37,1.86-.15,6.38.25,4.42,3.92-3.41,5.32-8.53,15.96-6.43,16.57,1.21.25.4,1.36-.55.95-3.46-1.26,2.61-13.15,5.27-18.07,1.21-2.26-2.36-2.06-3.97-1.86-3.16,3.41-12.8,16.31-17.52,14.36-5.02-2.11.4-14.86,5.47-16.72.85-.4,2.71,1.15,1.86,3.11Zm-5.52,3.41c1.76-.65,4.62-3.21,3.92-4.07-1.46.8-2.86,2.31-3.92,4.07Zm17.62-9.74c-.2-.75-4.57,2.96-4.52,4.17,0,.55,1.46.15,2.16.05.85-.95,2.46-3.46,2.36-4.22Z"/>
  </g>
  <g>
    <path class="cls-1" d="m43.14,48.26c-12.05,13-28.56,26.76-39.36,16.62C-9.12,50.22,13.62,14.62,32.8,2.58c7.68-4.82,14.61-2.66,11.4,7.48-2.46,7.78-6.88,15.06-9.19,17.12-2.21,2.21-3.82,1.61-3.41-.65.5-4.92,6.93-8.23,10.04-16.62,2.81-7.78-1.41-9.94-8.08-5.07C15.98,16.88-5.11,50.72,5.39,62.92c7.53,7.88,22.89-.75,40.11-19.43.85-11.55,12.6-32.68,17.82-37.8,1.36-1.41,3.16-2.31,4.22-1.91,5.32,2.61-15.26,33.33-19.78,39.16-.45,3.31.05,5.37,2.01,5.77,4.27-.2,14.21-10.79,18.02-15.21.85-.9,1.51-.05.9.75-4.72,5.42-14.71,16.62-20.18,16.01-1.51-.35-2.51-1.51-2.86-3.82-.05-.2-.1-.55-.1-.85-.95,1.15-1.71,1.96-2.41,2.71v-.05Zm5.12-8.03c12.1-16.82,21.19-34.84,18.62-34.69-2.96-.15-15.46,21.39-18.62,34.69Z"/>
    <path class="cls-1" d="m74.16,31.64c.4-.5,1.81-.7,2.16-.45.2.15.35.3-.05,1.1-1.71,2.86-3.11,9.99-1.1,10.94,2.56,1,8.28-7.08,10.54-9.29.85-.9,1.46-.05.85.75-2.01,1.61-8.33,11.8-12.45,9.79-2.06-1-2.31-4.82-1.66-8.18-.1.1-.15.15-.25.25-2.21,2.16-5.27,4.52-6.63,3.21-.35-.35-.35-1.51-.35-1.96.1-2.36,3.71-6.12,5.87-6.88.7-.3,1.91-.15,2.56.2.2.15.4.3.5.5Zm-1.76,1.91c-.05-.05-.2-.1-.35-.1-1.41,0-4.37,3.31-4.17,4.17.75-.25,3.06-2.61,4.52-4.07Z"/>
    <path class="cls-1" d="m88.31,32.65c-1.66,1.41-3.01,6.63-2.51,7.23,1.31-.1,4.32-5.97,5.62-8.18.95-1.61,1.76-1.05,2.11-.8.2.15.4.6,0,1.41-3.31,5.22-3.71,11.45-.05,12.15,3.66,1.15,11.9-8.28,14.16-10.49.85-.9,1.46-.05.85.75-2.01,1.61-10.24,12.9-15.81,10.94-3.01-1-3.77-4.52-3.26-8.08-.05-.05-.2.05-.4.35-1.26,1.81-2.76,3.71-3.92,3.21-.45-.2-.5-1.05-.7-1.51-.2-1.86.55-5.37,2.41-8.89.85-1.61,3.31.15,1.51,1.91Z"/>
    <path class="cls-1" d="m117.63,27.48c-.95,1.56-1.96,3.21-3.01,4.82.45.6.1,1.51-.5,1.91-.65.4-.8.05-1.36.75-1.26,1.71-2.56,3.21-3.77,4.27-1.36,1.15-2.91.95-3.31.55-.35-.35-.35-1.51-.35-1.96.1-2.36,3.71-6.12,5.87-6.88.65-.25,1.71-.15,2.36.15,2.26-3.26,4.62-7.08,6.23-9.89,2.41-6.43,5.12-12.15,7.83-15.46,1.2-1.31,2.61-1.46,2.91.3.5,2.86-3.61,6.43-5.72,10.44-6.93,11.9-12.4,37.95-9.74,37.2.9-.25.95,1.71-.75,1.56-3.16-.65-.9-14.46,3.31-27.76Zm-5.77,6.02c-1.46.35-4.07,3.31-3.87,4.12.55.1,2.06-1.66,3.87-4.12Z"/>
    <path class="cls-1" d="m125.71,31.94c.4.45.8,1.36,0,1.66-1.46.75-3.11,7.93-1.41,8.63,2.56,1,7.98-6.07,10.24-8.28.85-.9,1.46-.05.85.75-2.01,1.61-7.98,10.74-12.15,8.79-2.91-1.36-1.51-8.08.5-10.94.75-.95,1.66-.9,1.96-.6Zm.15-2.71v-.05c.75-2.66,4.27-.65,2.06.85-.4.25-.95.65-1.56.65-.45-.05-.7-1.15-.5-1.46Z"/>
    <path class="cls-1" d="m141.37,31.64c.4-.5,1.81-.7,2.16-.45.2.15.35.3-.05,1.1-1.71,2.86-3.11,9.99-1.1,10.94,2.56,1,8.28-7.08,10.54-9.29.85-.9,1.46-.05.85.75-2.01,1.61-8.33,11.8-12.45,9.79-2.06-1-2.31-4.82-1.66-8.18-.1.1-.15.15-.25.25-2.21,2.16-5.27,4.52-6.63,3.21-.35-.35-.35-1.51-.35-1.96.1-2.36,3.71-6.12,5.87-6.88.7-.3,1.91-.15,2.56.2.2.15.4.3.5.5Zm-1.76,1.91c-.05-.05-.2-.1-.35-.1-1.41,0-4.37,3.31-4.17,4.17.75-.25,3.06-2.61,4.52-4.07Z"/>
    <path class="cls-1" d="m191.07,38.47c2.86,1.91,4.67,4.37,4.22,7.88-1.15,14.51-31.23,30.22-37.75,20.43-4.22-9.24,13.96-20.68,28.77-28.11-6.68-3.06-16.11-5.27-17.02-11.75-1.26-13.15,33.03-32.88,40.06-25.2,2.46,2.71.65,7.83-2.16,11.95-2.31,3.36-3.26,3.97-4.62,4.32-2.21,1-2.91-.55-1.36-2.41,1.71-2.06,1.96-1.2,3.77-3.87,1.91-2.66,3.72-7.03,2.11-8.33-5.17-4.37-35.89,12.7-34.99,23.8.9,4.67,10.49,6.53,17.07,10.09,5.07-2.46,13.45-6.02,15.96-6.53,2.06-.45,1.91,1.36.15,1.76-2.61.6-9.74,3.46-14.21,5.97Zm-2.66,1.26c-15.41,7.68-32.08,19.53-29.17,25.7,4.07,7.18,30.27-4.17,33.28-18.07.85-3.26-1.05-5.87-4.12-7.63Z"/>
    <path class="cls-1" d="m208.13,31.14c-4.37,3.46-7.18,11.9-4.32,12.65,2.56,1,10.49-7.63,12.75-9.84.85-.9,1.46-.05.85.75-2.01,1.61-10.39,12.45-14.56,10.54-4.97-2.26.2-14.66,4.82-16.32.7-.25,2.26-.35,2.86.45.65,1.05.6,2.66.55,3.46,0,.6-.25,1.2-.65,1.41-.35.2-.95.35-1.56.1-.8-.45.45-3.36-.3-3.36-.2.1-.3,0-.45.15Z"/>
    <path class="cls-1" d="m221.03,35.26c-1.81,2.31-4.72,7.58-5.77,10.19-.5,1.26-2.96.95-2.01-1.96,3.87-14.36,15.21-36.7,20.63-40.46,3.11-2.16,4.27.45,3.26,3.21-1,3.26-2.91,6.68-4.97,9.79-2.61,3.97-7.33,10.24-10.49,14.06-1.3,1.56-2.01,1.51-3.97,6.53,1.91-2.61,4.07-4.82,5.27-4.67,3.31-.2,3.16,10.24,5.57,11.14,2.66.7,8.43-6.93,10.69-9.14.85-.9,1.46-.05.85.75-2.01,1.61-8.33,11.8-12.45,9.79-3.21-1.56-3.62-10.19-4.77-10.44-.65,0-1.05.5-1.86,1.2Zm.05-7.13c-.05.15.25.1.5-.2,2.06-2.71,7.38-9.19,9.34-12.35,2.16-3.56,4.32-7.33,4.87-9.39.35-1.41.25-2.01-.4-1.61-1.61,1-5.62,5.47-14.31,23.54Z"/>
    <path class="cls-1" d="m241.91,32.65c-1.66,1.41-3.01,6.63-2.51,7.23,1.31-.1,4.32-5.97,5.62-8.18.95-1.61,1.76-1.05,2.11-.8.2.15.4.6,0,1.41-3.31,5.22-3.72,11.45-.05,12.15,3.66,1.15,11.9-8.28,14.16-10.49.85-.9,1.46-.05.85.75-2.01,1.61-10.24,12.9-15.81,10.94-3.01-1-3.77-4.52-3.26-8.08-.05-.05-.2.05-.4.35-1.26,1.81-2.76,3.71-3.92,3.21-.45-.2-.5-1.05-.7-1.51-.2-1.86.55-5.37,2.41-8.89.85-1.61,3.31.15,1.51,1.91Zm1.71-6.43c-1.15-.2-1.56-2.26.05-2.56,1.61-.1,1.61,2.81-.05,2.56Zm3.56,0c-1.15-.2-1.56-2.26.05-2.56,1.61-.1,1.61,2.81-.05,2.56Z"/>
    <path class="cls-1" d="m275.95,5.14c2.01-2.41,5.37-2.26,4.77,1.2-.85,4.87-6.88,15.61-16.92,27.21-3.97,10.34-5.92,19.48-1.31,18.37,6.68-.7,31.08-41.62,34.79-46.39.2-.4.45-.75.7-1.1,1.91-2.96,3.01-3.36,3.97-2.66.4.3.75.85-.05,2.31-1.36,1.66-2.21,1.66-5.47,7.68-11.4,19.43-22.49,57.48-18.83,57.18,1.15-.25,1.15,1.81-.65,1.71-5.82-.3,4.17-31.88,13.65-52.36-8.89,14.36-22.79,35.94-28.92,35.49-12.2-.25,6.78-40.61,14.26-48.65Zm-10.79,24.9c11.45-14.46,15.51-24.5,13.96-24.8-1.56-.75-9.59,14.76-13.96,24.8Z"/>
    <path class="cls-1" d="m299.09,31.64c-.8,1.86-3.16,4.07-5.87,4.97-.25.1-.65.25-1.1,1.31-1.05,2.41-1,5.47.6,5.87,2.51,1,10.09-7.18,15.11-12.85-1.76.35-2.51-.05-2.66-.75-.4-2.06,4.52-7.08,6.78-6.17,1.51.6-.35,4.17-1.41,5.37,1.86-.15,6.38.25,4.42,3.92-3.41,5.32-8.53,15.96-6.43,16.57,1.21.25.4,1.36-.55.95-3.46-1.26,2.61-13.15,5.27-18.07,1.2-2.26-2.36-2.06-3.97-1.86-3.16,3.41-12.8,16.32-17.52,14.36-5.02-2.11.4-14.86,5.47-16.72.85-.4,2.71,1.15,1.86,3.11Zm-5.52,3.41c1.76-.65,4.62-3.21,3.92-4.07-1.46.8-2.86,2.31-3.92,4.07Zm17.62-9.74c-.2-.75-4.57,2.96-4.52,4.17,0,.55,1.46.15,2.16.05.85-.95,2.46-3.46,2.36-4.22Z"/>
  </g>
  <g>
    <path class="cls-1" d="m327.06,56.74c.74-.98,1.13-1.7,1.85-3.58l.53-1.58c1.87-5.35,3.75-9.72,5.64-13.11.94-1.58,1.82-2.28,2.66-2.11.41.07.72.43.62,1.39-.07.65-.31.94-.72.89-.41-.07-.91.29-1.46,1.03-.72,1.54-1.25,2.59-1.56,3.17-.31.58-.84,1.7-1.56,3.38,3.29-4.97,8.45-10.37,12.79-9.89,13.66,2.33-5.33,34.56-17.91,31.32-3.58-1.37-5.23-5.23-.89-10.92Zm1.54,9.84c12.05,1.58,28.3-28.03,16.9-29.09-3.72-.38-10.08,6.07-14.52,15.05,1.63-1.13,5.64-2.28,8.23-1.7,1.25.31.84,1.51-.34,1.01-1.18-.48-2.09-.34-2.74-.19-2.21.41-4.78.72-6.55,3.65-.53.86-.94,2.47-1.22,3.7.07,1.2-.14,1.75-.7,1.68-.65-.29-.86-1.01-.65-2.18-3.34,4.58-1.03,7.44,1.58,8.09Z"/>
    <path class="cls-1" d="m353.63,50.84c-.38.89-1.51,1.94-2.81,2.38-.12.05-.31.12-.53.62-.5,1.15-.48,2.62.29,2.81,1.22.48,5.02-3.65,6.1-4.7.41-.43.7-.02.41.36-.96.77-4.97,5.95-6.96,5.04-2.38-1.08.19-7.1,2.62-7.99.41-.19,1.3.55.89,1.49Zm-2.64,1.63c.84-.31,2.21-1.54,1.87-1.94-.7.38-1.37,1.1-1.87,1.94Z"/>
    <path class="cls-1" d="m361.98,54.51c1.13,3.43-4.66,9.87-6.96,7.85-1.15-1.54,2.21-4.97,5.57-7.58.12-.1.24-.19.36-.29-.12-.12-.24-.22-.41-.31-1.1-.6-3.22-.6-3.77-1.32-.55-.74,0-2.3,2.06-3.1,1.22-.48,1.68.96.62,1.01-.84.07-2.33,1.1-1.97,1.54.41.41,3.1.36,4.18,1.66,1.46-1.03,2.81-1.87,3.7-2.26.89-.31.96.46.48.6-1.01.31-2.42,1.15-3.86,2.21Zm-.77.58c-3.24,2.54-6.43,5.95-5.59,6.82,1.9.77,5.98-4.82,5.59-6.82Z"/>
    <path class="cls-1" d="m366.85,50.98c.19.22.38.65,0,.79-.7.36-1.49,3.79-.67,4.13,1.22.48,3.82-2.9,4.9-3.96.41-.43.7-.02.41.36-.96.77-3.82,5.14-5.81,4.2-1.39-.65-.72-3.86.24-5.23.36-.46.79-.43.94-.29Zm.07-1.3v-.02c.36-1.27,2.04-.31.98.41-.19.12-.46.31-.74.31-.22-.02-.34-.55-.24-.7Z"/>
    <path class="cls-1" d="m374.79,49.68c.24-.31.48-.6.67-.7.38-.17.53-.17.77-.05.96.5,1.39,2.26,1.3,4.66-.07.96.12.43.41.41,1.99-.96,3.65-1.68,4.92-1.85.58-.02.41.55-.02.55-.34.05-.65.22-1.1.31-.86.17-2.47.91-3.62,1.58-.29.26-.62.14-.7,1.06-1.08,9.89-7.54,18.27-12.07,17.02-1.56-.6-1.73-2.78-.7-5.3,1.56-3.82,6.1-9.29,11.5-12.43.1-.05.38-.31.41-.98.12-1.58-.26-4.2-.84-3.96-.29.26-.7.79-.98,1.3l-.38.34c-.74,1.01-1.63,2.33-2.45,2.95-.41.26-.79.36-1.08.14-.19-.14-.34-.86-.31-1.08.1-1.42,1.3-3.62,2.88-4.25.34-.14.91-.07,1.22.1.07.05.14.12.19.19Zm-4.56,20.02c2.9-3.07,5.57-8.69,6.19-13.75.07-.58-.12-.43-.22-.38-4.97,2.86-9.22,8.16-10.9,11.93-.98,2.4-.6,4.25.46,4.51,1.42.19,2.98-.72,4.46-2.3Zm3.84-18.94c-.02-.1-.07-.17-.24-.17-.67,0-2.28,2.54-2.09,3,.36-.12,1.61-1.78,2.33-2.83Z"/>
    <path class="cls-1" d="m383.77,55.9c-.34.62-.65,1.25-.91,1.82-.17.38-1.3.29-1.06-.65.29-2.38.89-5.42,1.54-6.79.31-.62.84-.82,1.1-.19.34.86-.62,1.58-1.03,3.29-.17.67-.41,1.54-.58,2.54,0,.1.1.12.14-.02l.36-.67v-.02c.67-1.13,1.99-3.19,2.74-3.74.24-.22.7-.29.79.24.26,1.3.53,3.96,1.73,4.34,1.22.48,3.79-3.05,4.87-4.1.41-.43.7-.02.41.36-.96.77-3.82,5.3-5.79,4.34-1.54-.74-1.63-3.14-1.85-4.25-.17-.1-1.49,1.75-2.47,3.5Z"/>
  </g>
</svg>